<svg xmlns="http://www.w3.org/2000/svg" xmlns:xlink="http://www.w3.org/1999/xlink"><defs>
<clipPath id="clip0">
<rect width="20" height="20" fill="white" transform="translate(10 10)"/>
</clipPath>

<clipPath id="clip0">
<rect width="20" height="20" fill="white" transform="translate(10 10)"/>
</clipPath>

<clipPath id="clip0">
<rect width="20" height="20" fill="white" transform="translate(10 10)"/>
</clipPath>

<clipPath id="clip0">
<rect width="20" height="20" fill="white" transform="translate(10 10)"/>
</clipPath>

<clipPath id="clip0">
<rect width="20" height="20" fill="white" transform="translate(10 10)"/>
</clipPath>
</defs><symbol id="icon-Behance" viewBox="0 0 40 40">
<circle cx="20" cy="20" r="20" fill="#2D2D30"/>
<g clip-path="url(#clip0)">
<path d="M20.3025 22.4558C20.3025 20.9158 19.57 19.7775 18.0567 19.3508C19.1608 18.825 19.7367 18.0283 19.7367 16.7892C19.7367 14.3458 17.91 13.75 15.8025 13.75H10V26.0175H15.965C18.2017 26.0175 20.3025 24.9483 20.3025 22.4558ZM12.705 15.8442H15.2433C16.2192 15.8442 17.0975 16.1175 17.0975 17.2458C17.0975 18.2875 16.4142 18.7067 15.4475 18.7067H12.705V15.8442ZM12.7042 23.9342V20.5558H15.6525C16.8433 20.5558 17.5967 21.0508 17.5967 22.3075C17.5967 23.5467 16.6975 23.9342 15.5967 23.9342H12.7042Z" fill="white"/>
<path d="M25.6635 26.2498C27.7918 26.2498 29.1702 25.2939 29.8335 23.2623H27.6735C27.441 24.0206 26.4827 24.4214 25.7393 24.4214C24.3052 24.4214 23.5518 23.5839 23.5518 22.1606H29.9793C30.1827 19.3123 28.596 16.8848 25.6627 16.8848C22.9468 16.8848 21.1035 18.9198 21.1035 21.5856C21.1035 24.3523 22.8502 26.2498 25.6635 26.2498ZM25.5868 18.7281C26.816 18.7281 27.4343 19.4481 27.5377 20.6256H23.5552C23.636 19.4581 24.4135 18.7281 25.5868 18.7281Z" fill="white"/>
<path d="M23.0566 14.3945H28.0466V15.6029H23.0566V14.3945Z" fill="white"/>
</g>

</symbol><symbol id="icon-Dreebl" viewBox="0 0 40 40">
<circle cx="20" cy="20" r="20" fill="#2D2D30"/>
<path d="M20 30C25.5142 30 30 25.5133 30 20C30 14.4867 25.5133 10 20 10C14.4867 10 10 14.4858 10 20C10 25.5142 14.4858 30 20 30ZM20 11.25C24.8233 11.25 28.75 15.175 28.75 20C28.75 24.8233 24.8233 28.75 20 28.75C15.175 28.75 11.25 24.8233 11.25 20C11.25 15.175 15.175 11.25 20 11.25Z" fill="white"/>
<path d="M24.7862 14.2258C23.4879 13.1475 21.8204 12.5 20.0012 12.5C19.4762 12.5 18.9637 12.555 18.4688 12.6575C19.3787 13.9475 20.2054 15.29 20.9329 16.6817C22.3087 16.04 23.6037 15.2125 24.7862 14.2258Z" fill="white"/>
<path d="M22.3874 19.8766C24.0474 19.5349 25.7749 19.5033 27.4874 19.7874C27.4374 17.9999 26.7649 16.3699 25.6749 15.1074C24.3882 16.1916 22.9732 17.0899 21.4707 17.7924C21.799 18.4774 22.104 19.1716 22.3874 19.8766Z" fill="white"/>
<path d="M19.7659 17.1543C19.0142 15.7285 18.1634 14.3535 17.2134 13.041C14.9617 13.9435 13.2551 15.9035 12.6992 18.3093C15.1267 18.4127 17.5292 18.0085 19.7659 17.1543Z" fill="white"/>
<path d="M21.17 20.1879C20.9092 19.5454 20.6267 18.9129 20.325 18.2871C18.16 19.1304 15.8475 19.5904 13.4958 19.5904C13.1725 19.5904 12.8475 19.5704 12.5225 19.5529C12.5142 19.7013 12.5 19.8496 12.5 20.0004C12.5 21.8421 13.1667 23.5271 14.2675 24.8321C16.0683 22.5954 18.49 20.9929 21.17 20.1879Z" fill="white"/>
<path d="M22.8477 21.059C23.4435 22.7223 23.911 24.4315 24.2543 26.1731C25.9443 25.0073 27.1243 23.1656 27.4202 21.0381C25.8877 20.7673 24.3385 20.779 22.8477 21.059Z" fill="white"/>
<path d="M15.1543 25.7196C16.4626 26.8288 18.151 27.4996 20.0001 27.4996C21.1101 27.4996 22.161 27.2521 23.1085 26.8188C22.7651 24.9513 22.2651 23.1238 21.6193 21.3496C19.0993 22.0854 16.8235 23.5979 15.1543 25.7196Z" fill="white"/>
</symbol><symbol id="icon-Face" viewBox="0 0 40 40">
<circle cx="20" cy="20" r="20" fill="#2D2D30"/>
<g clip-path="url(#clip0)">
<path d="M23.3312 13.3208H25.1571V10.1408C24.8421 10.0975 23.7587 10 22.4971 10C19.8646 10 18.0613 11.6558 18.0613 14.6992V17.5H15.1562V21.055H18.0613V30H21.6229V21.0558H24.4104L24.8529 17.5008H21.6221V15.0517C21.6229 14.0242 21.8996 13.3208 23.3312 13.3208Z" fill="white"/>
</g>

</symbol><symbol id="icon-Insta" viewBox="0 0 40 40">
<circle cx="20" cy="20" r="20" fill="#2D2D30"/>
<g clip-path="url(#clip0)">
<path d="M20.0028 14.8652C17.1669 14.8652 14.8711 17.1636 14.8711 19.9969C14.8711 22.8327 17.1694 25.1286 20.0028 25.1286C22.8386 25.1286 25.1344 22.8302 25.1344 19.9969C25.1344 17.1611 22.8361 14.8652 20.0028 14.8652ZM20.0028 23.3277C18.1619 23.3277 16.6719 21.8369 16.6719 19.9969C16.6719 18.1569 18.1628 16.6661 20.0028 16.6661C21.8428 16.6661 23.3336 18.1569 23.3336 19.9969C23.3344 21.8369 21.8436 23.3277 20.0028 23.3277Z" fill="white"/>
<path d="M24.1216 10.0638C22.2816 9.97797 17.7241 9.98213 15.8824 10.0638C14.2641 10.1396 12.8366 10.5305 11.6857 11.6813C9.7624 13.6046 10.0082 16.1963 10.0082 19.9971C10.0082 23.8871 9.79157 26.4188 11.6857 28.313C13.6166 30.243 16.2457 29.9905 20.0016 29.9905C23.8549 29.9905 25.1849 29.993 26.5474 29.4655C28.3999 28.7463 29.7982 27.0905 29.9349 24.1163C30.0216 22.2755 30.0166 17.7188 29.9349 15.8771C29.7699 12.3663 27.8857 10.2371 24.1216 10.0638ZM27.0341 27.0405C25.7732 28.3013 24.0241 28.1888 19.9774 28.1888C15.8107 28.1888 14.1399 28.2505 12.9207 27.028C11.5166 25.6305 11.7707 23.3863 11.7707 19.9838C11.7707 15.3796 11.2982 12.0638 15.9191 11.8271C16.9807 11.7896 17.2932 11.7771 19.9657 11.7771L20.0032 11.8021C24.4441 11.8021 27.9282 11.3371 28.1374 15.9571C28.1849 17.0113 28.1957 17.328 28.1957 19.9963C28.1949 24.1146 28.2732 25.7955 27.0341 27.0405Z" fill="white"/>
<path d="M25.3378 15.8622C26.0001 15.8622 26.537 15.3253 26.537 14.663C26.537 14.0008 26.0001 13.4639 25.3378 13.4639C24.6756 13.4639 24.1387 14.0008 24.1387 14.663C24.1387 15.3253 24.6756 15.8622 25.3378 15.8622Z" fill="white"/>
</g>

</symbol><symbol id="icon-location_city_24px" viewBox="0 0 30 32">
<path fill-rule="evenodd" clip-rule="evenodd" d="M20 6.20212V14.8188H26.6667C28.5 14.8188 30 16.3188 30 18.1521V28.1521C30 29.9855 28.5 31.4855 26.6667 31.4855H3.33333C1.5 31.4855 0 29.9855 0 28.1521V11.4855C0 9.65212 1.5 8.15212 3.33333 8.15212H10V6.20212C10 5.31879 10.35 4.46879 10.9833 3.83546L13.8167 1.00212C14.1281 0.690037 14.5508 0.514648 14.9917 0.514648C15.4325 0.514648 15.8553 0.690037 16.1667 1.00212L19.0167 3.85212C19.65 4.46879 20 5.31879 20 6.20212ZM3.33333 28.1521H6.66667V24.8188H3.33333V28.1521ZM6.66667 21.4855H3.33333V18.1521H6.66667V21.4855ZM3.33333 14.8188H6.66667V11.4855H3.33333V14.8188ZM16.6667 28.1521H13.3333V24.8188H16.6667V28.1521ZM13.3333 21.4855H16.6667V18.1521H13.3333V21.4855ZM16.6667 14.8188H13.3333V11.4855H16.6667V14.8188ZM13.3333 8.15212H16.6667V4.81879H13.3333V8.15212ZM26.6667 28.1521H23.3333V24.8188H26.6667V28.1521ZM23.3333 21.4855H26.6667V18.1521H23.3333V21.4855Z" fill="#1421FF"/>
</symbol><symbol id="icon-mail_24px" viewBox="0 0 34 28">
<path fill-rule="evenodd" clip-rule="evenodd" d="M3.66732 0.666992H30.334C32.1673 0.666992 33.6673 2.16699 33.6673 4.00033V24.0003C33.6673 25.8337 32.1673 27.3337 30.334 27.3337H3.66732C1.83398 27.3337 0.333984 25.8337 0.333984 24.0003V4.00033C0.333984 2.16699 1.83398 0.666992 3.66732 0.666992ZM18.7673 14.567L29.6673 7.75032C30.084 7.48365 30.334 7.03365 30.334 6.55032C30.334 5.43365 29.1173 4.76699 28.1673 5.35032L17.0007 12.3337L5.83398 5.35032C4.88398 4.76699 3.66732 5.43365 3.66732 6.55032C3.66732 7.03365 3.91732 7.48365 4.33398 7.75032L15.234 14.567C16.3173 15.2503 17.684 15.2503 18.7673 14.567Z" fill="#1421FF"/>
</symbol><symbol id="icon-place" viewBox="0 0 24 34">
<path fill-rule="evenodd" clip-rule="evenodd" d="M0.333984 12.4421C0.333984 5.99206 5.55065 0.775391 12.0007 0.775391C18.4507 0.775391 23.6673 5.99206 23.6673 12.4421C23.6673 19.3921 16.3007 28.9754 13.284 32.6254C12.6173 33.4254 11.4007 33.4254 10.734 32.6254C7.70065 28.9754 0.333984 19.3921 0.333984 12.4421ZM7.83399 12.4421C7.83399 14.7421 9.70065 16.6087 12.0007 16.6087C14.3007 16.6087 16.1673 14.7421 16.1673 12.4421C16.1673 10.1421 14.3007 8.27539 12.0007 8.27539C9.70065 8.27539 7.83399 10.1421 7.83399 12.4421Z" fill="#1421FF"/>
</symbol><symbol id="icon-smartphone_24px" viewBox="0 0 24 38">
<path fill-rule="evenodd" clip-rule="evenodd" d="M3.66732 0.666992L20.334 0.683659C22.1673 0.683659 23.6673 2.16699 23.6673 4.00033V34.0003C23.6673 35.8337 22.1673 37.3337 20.334 37.3337H3.66732C1.83398 37.3337 0.333984 35.8337 0.333984 34.0003V4.00033C0.333984 2.16699 1.83398 0.666992 3.66732 0.666992ZM3.66732 30.667H20.334V7.33366H3.66732V30.667Z" fill="#1421FF"/>
</symbol><symbol id="icon-Telegram" viewBox="0 0 40 40">
<circle cx="20" cy="20" r="20" fill="#2D2D30"/>
<g clip-path="url(#clip0)">
<path d="M17.8476 22.6505L17.5168 27.3039C17.9901 27.3039 18.1951 27.1005 18.441 26.8564L20.6601 24.7355L25.2585 28.103C26.1018 28.573 26.696 28.3255 26.9235 27.3272L29.9418 13.1839L29.9426 13.183C30.2101 11.9364 29.4918 11.4489 28.6701 11.7547L10.9285 18.5472C9.71765 19.0172 9.73598 19.6922 10.7226 19.998L15.2585 21.4089L25.7943 14.8164C26.2901 14.488 26.741 14.6697 26.3701 14.998L17.8476 22.6505Z" fill="white"/>
</g>

</symbol><symbol id="icon-VK" viewBox="0 0 40 40">
<circle cx="20" cy="20" r="20" fill="#2D2D30"/>
<g clip-path="url(#clip0)">
<path d="M26.5958 20.857C26.2725 20.4487 26.365 20.267 26.5958 19.902C26.6 19.8978 29.2692 16.2095 29.5442 14.9587L29.5458 14.9578C29.6825 14.502 29.5458 14.167 28.885 14.167H26.6983C26.1417 14.167 25.885 14.4545 25.7475 14.7762C25.7475 14.7762 24.6342 17.4412 23.0592 19.1687C22.5508 19.6678 22.3158 19.8278 22.0383 19.8278C21.9017 19.8278 21.6892 19.6678 21.6892 19.212V14.9578C21.6892 14.4112 21.5333 14.167 21.0725 14.167H17.6342C17.285 14.167 17.0775 14.422 17.0775 14.6595C17.0775 15.1778 17.865 15.297 17.9467 16.7553V19.9195C17.9467 20.6128 17.8208 20.7403 17.5417 20.7403C16.7983 20.7403 14.9942 18.0645 13.925 15.002C13.7092 14.4078 13.4983 14.1678 12.9375 14.1678H10.75C10.1258 14.1678 10 14.4553 10 14.777C10 15.3453 10.7433 18.1712 13.4567 21.9045C15.265 24.4528 17.8117 25.8337 20.1283 25.8337C21.5208 25.8337 21.6908 25.527 21.6908 24.9995C21.6908 22.5645 21.565 22.3345 22.2625 22.3345C22.5858 22.3345 23.1425 22.4945 24.4425 23.7237C25.9283 25.1812 26.1725 25.8337 27.0042 25.8337H29.1908C29.8142 25.8337 30.13 25.527 29.9483 24.922C29.5325 23.6495 26.7225 21.032 26.5958 20.857Z" fill="white"/>
</g>

</symbol>
<symbol id="icon-place" viewBox="0 0 24 34"><path fill-rule="evenodd" clip-rule="evenodd" d="M0.333984 12.4421C0.333984 5.99206 5.55065 0.775391 12.0007 0.775391C18.4507 0.775391 23.6673 5.99206 23.6673 12.4421C23.6673 19.3921 16.3007 28.9754 13.284 32.6254C12.6173 33.4254 11.4007 33.4254 10.734 32.6254C7.70065 28.9754 0.333984 19.3921 0.333984 12.4421ZM7.83399 12.4421C7.83399 14.7421 9.70065 16.6087 12.0007 16.6087C14.3007 16.6087 16.1673 14.7421 16.1673 12.4421C16.1673 10.1421 14.3007 8.27539 12.0007 8.27539C9.70065 8.27539 7.83399 10.1421 7.83399 12.4421Z" fill="#1421FF"/>
</symbol>
</svg>