<svg width="40" height="40" viewBox="0 0 40 40" fill="none" xmlns="http://www.w3.org/2000/svg">
<circle cx="20" cy="20" r="20" fill="#2D2D30"/>
<path d="M20 30C25.5142 30 30 25.5133 30 20C30 14.4867 25.5133 10 20 10C14.4867 10 10 14.4858 10 20C10 25.5142 14.4858 30 20 30ZM20 11.25C24.8233 11.25 28.75 15.175 28.75 20C28.75 24.8233 24.8233 28.75 20 28.75C15.175 28.75 11.25 24.8233 11.25 20C11.25 15.175 15.175 11.25 20 11.25Z" fill="white"/>
<path d="M24.7862 14.2258C23.4879 13.1475 21.8204 12.5 20.0012 12.5C19.4762 12.5 18.9637 12.555 18.4688 12.6575C19.3787 13.9475 20.2054 15.29 20.9329 16.6817C22.3087 16.04 23.6037 15.2125 24.7862 14.2258Z" fill="white"/>
<path d="M22.3874 19.8766C24.0474 19.5349 25.7749 19.5033 27.4874 19.7874C27.4374 17.9999 26.7649 16.3699 25.6749 15.1074C24.3882 16.1916 22.9732 17.0899 21.4707 17.7924C21.799 18.4774 22.104 19.1716 22.3874 19.8766Z" fill="white"/>
<path d="M19.7659 17.1543C19.0142 15.7285 18.1634 14.3535 17.2134 13.041C14.9617 13.9435 13.2551 15.9035 12.6992 18.3093C15.1267 18.4127 17.5292 18.0085 19.7659 17.1543Z" fill="white"/>
<path d="M21.17 20.1879C20.9092 19.5454 20.6267 18.9129 20.325 18.2871C18.16 19.1304 15.8475 19.5904 13.4958 19.5904C13.1725 19.5904 12.8475 19.5704 12.5225 19.5529C12.5142 19.7013 12.5 19.8496 12.5 20.0004C12.5 21.8421 13.1667 23.5271 14.2675 24.8321C16.0683 22.5954 18.49 20.9929 21.17 20.1879Z" fill="white"/>
<path d="M22.8477 21.059C23.4435 22.7223 23.911 24.4315 24.2543 26.1731C25.9443 25.0073 27.1243 23.1656 27.4202 21.0381C25.8877 20.7673 24.3385 20.779 22.8477 21.059Z" fill="white"/>
<path d="M15.1543 25.7196C16.4626 26.8288 18.151 27.4996 20.0001 27.4996C21.1101 27.4996 22.161 27.2521 23.1085 26.8188C22.7651 24.9513 22.2651 23.1238 21.6193 21.3496C19.0993 22.0854 16.8235 23.5979 15.1543 25.7196Z" fill="white"/>
</svg>
