<svg width="40" height="40" viewBox="0 0 40 40" fill="none" xmlns="http://www.w3.org/2000/svg">
<circle cx="20" cy="20" r="20" fill="#2D2D30"/>
<g clip-path="url(#clip0)">
<path d="M20.0028 14.8652C17.1669 14.8652 14.8711 17.1636 14.8711 19.9969C14.8711 22.8327 17.1694 25.1286 20.0028 25.1286C22.8386 25.1286 25.1344 22.8302 25.1344 19.9969C25.1344 17.1611 22.8361 14.8652 20.0028 14.8652ZM20.0028 23.3277C18.1619 23.3277 16.6719 21.8369 16.6719 19.9969C16.6719 18.1569 18.1628 16.6661 20.0028 16.6661C21.8428 16.6661 23.3336 18.1569 23.3336 19.9969C23.3344 21.8369 21.8436 23.3277 20.0028 23.3277Z" fill="white"/>
<path d="M24.1216 10.0638C22.2816 9.97797 17.7241 9.98213 15.8824 10.0638C14.2641 10.1396 12.8366 10.5305 11.6857 11.6813C9.7624 13.6046 10.0082 16.1963 10.0082 19.9971C10.0082 23.8871 9.79157 26.4188 11.6857 28.313C13.6166 30.243 16.2457 29.9905 20.0016 29.9905C23.8549 29.9905 25.1849 29.993 26.5474 29.4655C28.3999 28.7463 29.7982 27.0905 29.9349 24.1163C30.0216 22.2755 30.0166 17.7188 29.9349 15.8771C29.7699 12.3663 27.8857 10.2371 24.1216 10.0638ZM27.0341 27.0405C25.7732 28.3013 24.0241 28.1888 19.9774 28.1888C15.8107 28.1888 14.1399 28.2505 12.9207 27.028C11.5166 25.6305 11.7707 23.3863 11.7707 19.9838C11.7707 15.3796 11.2982 12.0638 15.9191 11.8271C16.9807 11.7896 17.2932 11.7771 19.9657 11.7771L20.0032 11.8021C24.4441 11.8021 27.9282 11.3371 28.1374 15.9571C28.1849 17.0113 28.1957 17.328 28.1957 19.9963C28.1949 24.1146 28.2732 25.7955 27.0341 27.0405Z" fill="white"/>
<path d="M25.3378 15.8622C26.0001 15.8622 26.537 15.3253 26.537 14.663C26.537 14.0008 26.0001 13.4639 25.3378 13.4639C24.6756 13.4639 24.1387 14.0008 24.1387 14.663C24.1387 15.3253 24.6756 15.8622 25.3378 15.8622Z" fill="white"/>
</g>
<defs>
<clipPath id="clip0">
<rect width="20" height="20" fill="white" transform="translate(10 10)"/>
</clipPath>
</defs>
</svg>
